<svg width="38" height="38" viewBox="0 0 38 38" fill="none" xmlns="http://www.w3.org/2000/svg">
<path d="M7.59364 29.6244H4.13836C3.71037 29.624 3.30004 29.4538 2.99741 29.1512C2.69478 28.8486 2.52458 28.4382 2.52417 28.0103V11.3114C2.52417 10.9011 2.68717 10.5076 2.97732 10.2174C3.26746 9.92729 3.66099 9.76428 4.07131 9.76428H7.91339C8.05016 9.76428 8.18134 9.81862 8.27805 9.91533C8.37477 10.012 8.4291 10.1432 8.4291 10.28C8.4291 10.4168 8.37477 10.5479 8.27805 10.6447C8.18134 10.7414 8.05016 10.7957 7.91339 10.7957H4.07131C3.93454 10.7957 3.80336 10.85 3.70665 10.9468C3.60993 11.0435 3.5556 11.1746 3.5556 11.3114V28.0103C3.55574 28.1648 3.61718 28.3129 3.72644 28.4222C3.83569 28.5314 3.98384 28.5929 4.13836 28.593H7.59364C7.73042 28.593 7.86159 28.6474 7.95831 28.7441C8.05502 28.8408 8.10936 28.972 8.10936 29.1087C8.10936 29.2455 8.05502 29.3767 7.95831 29.4734C7.86159 29.5701 7.73042 29.6244 7.59364 29.6244Z" fill="#090909"/>
<path d="M22.2298 29.6244H13.1842C13.0474 29.6244 12.9162 29.5701 12.8195 29.4734C12.7228 29.3767 12.6685 29.2455 12.6685 29.1087C12.6685 28.972 12.7228 28.8408 12.8195 28.7441C12.9162 28.6474 13.0474 28.593 13.1842 28.593H22.2298C22.3843 28.5929 22.5325 28.5314 22.6417 28.4222C22.751 28.3129 22.8124 28.1648 22.8126 28.0103V11.3114C22.8126 11.1746 22.7582 11.0435 22.6615 10.9468C22.5648 10.85 22.4336 10.7957 22.2969 10.7957H18.4496C18.3128 10.7957 18.1817 10.7414 18.085 10.6447C17.9882 10.5479 17.9339 10.4168 17.9339 10.28C17.9339 10.1432 17.9882 10.012 18.085 9.91533C18.1817 9.81862 18.3128 9.76428 18.4496 9.76428H22.2969C22.7072 9.76428 23.1007 9.92729 23.3908 10.2174C23.681 10.5076 23.844 10.9011 23.844 11.3114V28.0103C23.8436 28.4382 23.6734 28.8486 23.3708 29.1512C23.0681 29.4538 22.6578 29.624 22.2298 29.6244Z" fill="#090909"/>
<path d="M26.8897 29.627H25.5251C24.8051 29.6263 24.1148 29.3401 23.6057 28.831C23.0965 28.322 22.8101 27.6317 22.8093 26.9118C22.8093 26.775 22.8637 26.6438 22.9604 26.5471C23.0571 26.4504 23.1883 26.3961 23.325 26.3961C23.4618 26.3961 23.593 26.4504 23.6897 26.5471C23.7864 26.6438 23.8408 26.775 23.8408 26.9118C23.8413 27.3583 24.0189 27.7863 24.3347 28.102C24.6505 28.4177 25.0786 28.5952 25.5251 28.5956H26.8886C27.0254 28.5956 27.1566 28.6499 27.2533 28.7466C27.35 28.8433 27.4043 28.9745 27.4043 29.1113C27.4043 29.2481 27.35 29.3792 27.2533 29.476C27.1566 29.5727 27.0254 29.627 26.8886 29.627H26.8897Z" fill="#090909"/>
<path d="M33.8458 29.627H32.4771C32.3403 29.627 32.2092 29.5727 32.1124 29.476C32.0157 29.3793 31.9614 29.2481 31.9614 29.1113C31.9614 28.9745 32.0157 28.8434 32.1124 28.7466C32.2092 28.6499 32.3403 28.5956 32.4771 28.5956H33.8458C34.2923 28.5952 34.7204 28.4177 35.0362 28.102C35.3519 27.7863 35.5296 27.3583 35.5301 26.9118V24.1465C35.5288 23.5056 35.3074 22.8846 34.903 22.3874L30.5865 17.0864C30.3253 16.7651 29.9956 16.5063 29.6214 16.3289C29.2473 16.1515 28.8382 16.06 28.4241 16.0612H23.3263C23.1895 16.0612 23.0583 16.0068 22.9616 15.9101C22.8649 15.8134 22.8105 15.6822 22.8105 15.5455C22.8105 15.4087 22.8649 15.2775 22.9616 15.1808C23.0583 15.0841 23.1895 15.0297 23.3263 15.0297H28.4241C28.9915 15.0282 29.552 15.1537 30.0646 15.3969C30.5771 15.6402 31.0288 15.9951 31.3864 16.4356L35.7034 21.7366C36.257 22.4179 36.56 23.2686 36.5616 24.1465V26.9118C36.5607 27.6318 36.2743 28.322 35.7652 28.831C35.2561 29.3401 34.5658 29.6263 33.8458 29.627Z" fill="#090909"/>
<path d="M36.0456 24.5869H27.4451C27.0167 24.5864 26.6061 24.416 26.3032 24.1131C26.0003 23.8102 25.8299 23.3995 25.8293 22.9712V18.9574C25.8299 18.5291 26.0003 18.1185 26.3032 17.8157C26.6061 17.5129 27.0168 17.3426 27.4451 17.3422H31.8771C32.0139 17.3422 32.1451 17.3965 32.2418 17.4932C32.3385 17.5899 32.3928 17.7211 32.3928 17.8579C32.3928 17.9947 32.3385 18.1258 32.2418 18.2225C32.1451 18.3193 32.0139 18.3736 31.8771 18.3736H27.4451C27.2902 18.3737 27.1418 18.4353 27.0322 18.5447C26.9227 18.6541 26.861 18.8025 26.8608 18.9574V22.9712C26.8609 23.1261 26.9225 23.2747 27.0321 23.3842C27.1416 23.4937 27.2902 23.5554 27.4451 23.5555H36.0456C36.1824 23.5555 36.3136 23.6098 36.4103 23.7065C36.507 23.8033 36.5614 23.9344 36.5614 24.0712C36.5614 24.208 36.507 24.3392 36.4103 24.4359C36.3136 24.5326 36.1824 24.5869 36.0456 24.5869Z" fill="#090909"/>
<path d="M29.6831 32.4206C29.0286 32.4206 28.3888 32.2265 27.8445 31.8629C27.3003 31.4993 26.8762 30.9824 26.6257 30.3777C26.3752 29.773 26.3097 29.1076 26.4374 28.4657C26.5651 27.8237 26.8802 27.234 27.3431 26.7712C27.8059 26.3084 28.3955 25.9932 29.0375 25.8655C29.6794 25.7378 30.3448 25.8034 30.9495 26.0539C31.5542 26.3043 32.0711 26.7285 32.4347 27.2727C32.7984 27.8169 32.9925 28.4568 32.9925 29.1113C32.9914 29.9886 32.6423 30.8297 32.022 31.4501C31.4016 32.0705 30.5605 32.4195 29.6831 32.4206ZM29.6831 26.8334C29.2326 26.8334 28.7922 26.967 28.4176 27.2173C28.043 27.4676 27.751 27.8233 27.5786 28.2396C27.4062 28.6558 27.3611 29.1138 27.449 29.5557C27.5369 29.9976 27.7538 30.4034 28.0724 30.722C28.391 31.0406 28.7968 31.2575 29.2387 31.3454C29.6806 31.4333 30.1386 31.3882 30.5548 31.2158C30.9711 31.0434 31.3268 30.7514 31.5771 30.3768C31.8274 30.0022 31.961 29.5618 31.961 29.1113C31.9602 28.5074 31.72 27.9285 31.2929 27.5015C30.8659 27.0744 30.287 26.8342 29.6831 26.8334Z" fill="#090909"/>
<path d="M10.3894 32.4206C9.73489 32.4206 9.09506 32.2265 8.55085 31.8629C8.00663 31.4993 7.58246 30.9824 7.33199 30.3777C7.08151 29.773 7.01598 29.1076 7.14367 28.4657C7.27136 27.8237 7.58654 27.234 8.04936 26.7712C8.51218 26.3084 9.10185 25.9932 9.7438 25.8655C10.3857 25.7378 11.0511 25.8034 11.6558 26.0539C12.2605 26.3043 12.7774 26.7285 13.141 27.2727C13.5047 27.8169 13.6988 28.4568 13.6988 29.1113C13.6977 29.9886 13.3486 30.8297 12.7283 31.4501C12.1079 32.0705 11.2668 32.4195 10.3894 32.4206ZM10.3894 26.8334C9.93889 26.8334 9.49848 26.967 9.12388 27.2173C8.74928 27.4676 8.45731 27.8233 8.2849 28.2396C8.11249 28.6558 8.06738 29.1138 8.15528 29.5557C8.24317 29.9976 8.46012 30.4034 8.77869 30.722C9.09726 31.0406 9.50315 31.2575 9.94502 31.3454C10.3869 31.4333 10.8449 31.3882 11.2611 31.2158C11.6774 31.0434 12.0331 30.7514 12.2834 30.3768C12.5337 30.0022 12.6673 29.5618 12.6673 29.1113C12.6666 28.5074 12.4264 27.9284 11.9994 27.5013C11.5723 27.0743 10.9933 26.8341 10.3894 26.8334Z" fill="#090909"/>
<path d="M13.1857 16.0611C12.0416 16.0616 10.923 15.7228 9.97149 15.0875C9.01996 14.4521 8.27825 13.5489 7.84017 12.4919C7.40209 11.435 7.28734 10.2718 7.51042 9.14967C7.73351 8.0275 8.28441 6.9967 9.09343 6.18767C9.90246 5.37865 10.9333 4.82775 12.0554 4.60466C13.1776 4.38158 14.3407 4.49633 15.3977 4.93441C16.4546 5.37249 17.3579 6.1142 17.9932 7.06573C18.6286 8.01725 18.9674 9.13583 18.9669 10.28C18.9644 11.8125 18.3546 13.2815 17.2709 14.3652C16.1873 15.4488 14.7182 16.0587 13.1857 16.0611ZM13.1857 5.52508C12.2458 5.52457 11.3269 5.80279 10.5451 6.32456C9.76326 6.84632 9.15374 7.5882 8.79358 8.45638C8.43342 9.32455 8.33879 10.28 8.52166 11.202C8.70453 12.1239 9.15668 12.971 9.82094 13.636C10.4852 14.3009 11.3317 14.754 12.2535 14.9379C13.1753 15.1217 14.1308 15.0282 14.9994 14.6689C15.868 14.3097 16.6105 13.701 17.1331 12.9198C17.6557 12.1385 17.9349 11.2199 17.9355 10.28C17.9341 9.02021 17.4334 7.81235 16.5431 6.92108C15.6528 6.02981 14.4455 5.52781 13.1857 5.52508Z" fill="#090909"/>
<path d="M15.2651 12.8766C15.1975 12.8767 15.1306 12.8633 15.0682 12.8374C15.0058 12.8115 14.9491 12.7735 14.9015 12.7255L12.8206 10.6446C12.7498 10.5738 12.7011 10.484 12.6805 10.386C12.6599 10.288 12.6682 10.1861 12.7045 10.0928L13.4436 8.19446C13.4667 8.1294 13.5026 8.06965 13.5492 8.01874C13.5958 7.96782 13.6522 7.92678 13.7149 7.89805C13.7777 7.86932 13.8456 7.85348 13.9146 7.85148C13.9836 7.84947 14.0523 7.86133 14.1166 7.88637C14.1809 7.9114 14.2396 7.94909 14.2891 7.99721C14.3386 8.04533 14.3779 8.1029 14.4047 8.1665C14.4316 8.23009 14.4454 8.29843 14.4453 8.36746C14.4452 8.43649 14.4313 8.5048 14.4043 8.56835L13.7855 10.1557L15.6281 11.9989C15.7002 12.071 15.7493 12.1629 15.7692 12.2629C15.7891 12.3629 15.7789 12.4666 15.7399 12.5608C15.7009 12.6551 15.6348 12.7356 15.55 12.7923C15.4652 12.8489 15.3655 12.8792 15.2635 12.8792L15.2651 12.8766Z" fill="#090909"/>
<path d="M13.1859 6.71587C13.0491 6.71587 12.9179 6.66153 12.8212 6.56482C12.7245 6.4681 12.6702 6.33693 12.6702 6.20015V5.00937C12.6702 4.87259 12.7245 4.74142 12.8212 4.6447C12.9179 4.54799 13.0491 4.49365 13.1859 4.49365C13.3227 4.49365 13.4538 4.54799 13.5505 4.6447C13.6473 4.74142 13.7016 4.87259 13.7016 5.00937V6.20015C13.7016 6.33693 13.6473 6.4681 13.5505 6.56482C13.4538 6.66153 13.3227 6.71587 13.1859 6.71587Z" fill="#090909"/>
<path d="M13.1859 16.0611C13.0491 16.0611 12.9179 16.0068 12.8212 15.9101C12.7245 15.8134 12.6702 15.6822 12.6702 15.5454V14.3551C12.6702 14.2184 12.7245 14.0872 12.8212 13.9905C12.9179 13.8938 13.0491 13.8394 13.1859 13.8394C13.3227 13.8394 13.4538 13.8938 13.5505 13.9905C13.6473 14.0872 13.7016 14.2184 13.7016 14.3551V15.5454C13.7016 15.6822 13.6473 15.8134 13.5505 15.9101C13.4538 16.0068 13.3227 16.0611 13.1859 16.0611Z" fill="#090909"/>
<path d="M18.4543 10.7931H17.263C17.1263 10.7931 16.9951 10.7388 16.8984 10.642C16.8016 10.5453 16.7473 10.4141 16.7473 10.2774C16.7473 10.1406 16.8016 10.0094 16.8984 9.91271C16.9951 9.81599 17.1263 9.76166 17.263 9.76166H18.4543C18.5911 9.76166 18.7223 9.81599 18.819 9.91271C18.9157 10.0094 18.97 10.1406 18.97 10.2774C18.97 10.4141 18.9157 10.5453 18.819 10.642C18.7223 10.7388 18.5911 10.7931 18.4543 10.7931Z" fill="#090909"/>
<path d="M9.1086 10.7931H7.91781C7.78104 10.7931 7.64986 10.7388 7.55315 10.642C7.45643 10.5453 7.4021 10.4141 7.4021 10.2774C7.4021 10.1406 7.45643 10.0094 7.55315 9.91271C7.64986 9.81599 7.78104 9.76166 7.91781 9.76166H9.1086C9.24537 9.76166 9.37655 9.81599 9.47326 9.91271C9.56998 10.0094 9.62431 10.1406 9.62431 10.2774C9.62431 10.4141 9.56998 10.5453 9.47326 10.642C9.37655 10.7388 9.24537 10.7931 9.1086 10.7931Z" fill="#090909"/>
</svg>
