<svg width="21" height="16" viewBox="0 0 21 16" fill="none" xmlns="http://www.w3.org/2000/svg">
<path fill-rule="evenodd" clip-rule="evenodd" d="M0.900024 1.26781C0.900024 0.984595 1.04677 0.712981 1.30798 0.512719C1.56919 0.312457 1.92347 0.199951 2.29288 0.199951H19.0072C19.3766 0.199951 19.7309 0.312457 19.9921 0.512719C20.2533 0.712981 20.4 0.984595 20.4 1.26781C20.4 1.55102 20.2533 1.82263 19.9921 2.0229C19.7309 2.22316 19.3766 2.33566 19.0072 2.33566H2.29288C1.92347 2.33566 1.56919 2.22316 1.30798 2.0229C1.04677 1.82263 0.900024 1.55102 0.900024 1.26781Z" fill="#CFCFCF"/>
<path fill-rule="evenodd" clip-rule="evenodd" d="M0.900024 7.74193C0.900024 7.45872 1.04677 7.1871 1.30798 6.98684C1.56919 6.78658 1.92347 6.67407 2.29288 6.67407H19.0072C19.3766 6.67407 19.7309 6.78658 19.9921 6.98684C20.2533 7.1871 20.4 7.45872 20.4 7.74193C20.4 8.02514 20.2533 8.29676 19.9921 8.49702C19.7309 8.69728 19.3766 8.80979 19.0072 8.80979H2.29288C1.92347 8.80979 1.56919 8.69728 1.30798 8.49702C1.04677 8.29676 0.900024 8.02514 0.900024 7.74193Z" fill="#CFCFCF"/>
<path fill-rule="evenodd" clip-rule="evenodd" d="M0.900024 14.2159C0.900024 13.9327 1.04677 13.6611 1.30798 13.4608C1.56919 13.2606 1.92347 13.1481 2.29288 13.1481H10.65C11.0194 13.1481 11.3737 13.2606 11.6349 13.4608C11.8961 13.6611 12.0429 13.9327 12.0429 14.2159C12.0429 14.4991 11.8961 14.7708 11.6349 14.971C11.3737 15.1713 11.0194 15.2838 10.65 15.2838H2.29288C1.92347 15.2838 1.56919 15.1713 1.30798 14.971C1.04677 14.7708 0.900024 14.4991 0.900024 14.2159Z" fill="#CFCFCF"/>
</svg>
