<svg width="25" height="25" viewBox="0 0 25 25" fill="none" xmlns="http://www.w3.org/2000/svg">
<path d="M23.3367 13.1309C23.1683 13.1324 23.006 13.0685 22.8839 12.9528L22.4365 12.5053L20.9001 10.9689V13.1417V23.35C20.9001 23.5224 20.8316 23.6877 20.7097 23.8096L21.3461 24.446L20.7097 23.8096C20.5878 23.9315 20.4225 24 20.2501 24H17.1501C16.9777 24 16.8124 23.9315 16.6905 23.8096L16.0541 24.446L16.6905 23.8096C16.5686 23.6877 16.5001 23.5224 16.5001 23.35V20.25C16.5001 19.6002 16.242 18.9771 15.7825 18.5176C15.323 18.0581 14.6999 17.8 14.0501 17.8H10.9501C10.3003 17.8 9.67715 18.0581 9.21768 18.5176C8.75822 18.9771 8.50009 19.6002 8.50009 20.25V23.35C8.50009 23.5224 8.43161 23.6877 8.30971 23.8096C8.18782 23.9315 8.02249 24 7.85009 24H4.75009C4.5777 24 4.41237 23.9315 4.29048 23.8096C4.16858 23.6877 4.10009 23.5224 4.10009 23.35V13.1417V10.9689L2.5637 12.5053L2.11628 12.9527C1.99417 13.0685 1.83188 13.1324 1.66349 13.1309C1.49306 13.1295 1.33004 13.0611 1.20952 12.9406C1.08901 12.8201 1.02065 12.657 1.01917 12.4866C1.0177 12.3182 1.08163 12.156 1.19735 12.0339L12.0405 1.19065C12.0406 1.19062 12.0406 1.19059 12.0406 1.19056C12.1625 1.06876 12.3278 1.00034 12.5001 1.00034C12.6724 1.00034 12.8377 1.06876 12.9595 1.19056C12.9596 1.19059 12.9596 1.19062 12.9596 1.19065L23.8028 12.0339C23.9186 12.156 23.9825 12.3182 23.981 12.4866C23.9795 12.657 23.9112 12.8201 23.7907 12.9406C23.6702 13.0611 23.5071 13.1295 23.3367 13.1309Z" stroke="#CFCFCF" stroke-width="1.8"/>
</svg>
