<svg width="33" height="25" viewBox="0 0 33 25" fill="none" xmlns="http://www.w3.org/2000/svg">
<path d="M28.5 6.49998H24V0.5H3.00003C1.34248 0.5 0 1.84248 0 3.50003V20.0001H3.00003C3.00003 22.4826 5.0175 24.5001 7.50003 24.5001C9.98255 24.5001 12 22.4826 12 20.0001H21C21 22.4826 23.0175 24.5001 25.5 24.5001C27.9826 24.5001 30 22.4826 30 20.0001H33.0001V12.5L28.5 6.49998ZM7.50003 22.25C6.255 22.25 5.25003 21.245 5.25003 20C5.25003 18.755 6.255 17.75 7.50003 17.75C8.74505 17.75 9.75003 18.755 9.75003 20C9.75003 21.245 8.74498 22.25 7.50003 22.25ZM25.5 22.25C24.255 22.25 23.25 21.245 23.25 20C23.25 18.755 24.255 17.75 25.5 17.75C26.7451 17.75 27.75 18.755 27.75 20C27.75 21.245 26.745 22.25 25.5 22.25ZM24 12.5V8.75005H27.75L30.6975 12.5H24Z" fill="#FF7A00"/>
</svg>
