<svg width="23" height="20" viewBox="0 0 23 20" fill="none" xmlns="http://www.w3.org/2000/svg">
<path d="M20.7084 1.80209C20.1763 1.26981 19.5446 0.847558 18.8494 0.559472C18.1541 0.271386 17.4089 0.123108 16.6563 0.123108C15.9037 0.123108 15.1585 0.271386 14.4632 0.559472C13.7679 0.847558 13.1362 1.26981 12.6042 1.80209L11.5 2.90626L10.3959 1.80209C9.3212 0.727414 7.86362 0.123665 6.34379 0.123665C4.82397 0.123665 3.36639 0.727414 2.29171 1.80209C1.21703 2.87677 0.613281 4.33435 0.613281 5.85418C0.613281 7.374 1.21703 8.83158 2.29171 9.90626L3.39588 11.0104L11.5 19.1146L19.6042 11.0104L20.7084 9.90626C21.2407 9.37422 21.6629 8.74252 21.951 8.04725C22.2391 7.35198 22.3874 6.60677 22.3874 5.85418C22.3874 5.10158 22.2391 4.35637 21.951 3.6611C21.6629 2.96583 21.2407 2.33413 20.7084 1.80209Z" fill="#FF7A00"/>
</svg>
