<svg width="25" height="22" viewBox="0 0 25 22" fill="none" xmlns="http://www.w3.org/2000/svg">
<path d="M21.7084 2.80209C21.1763 2.26981 20.5446 1.84756 19.8494 1.55947C19.1541 1.27139 18.4089 1.12311 17.6563 1.12311C16.9037 1.12311 16.1585 1.27139 15.4632 1.55947C14.7679 1.84756 14.1362 2.26981 13.6042 2.80209L12.5 3.90626L11.3959 2.80209C10.3212 1.72741 8.86362 1.12366 7.34379 1.12366C5.82397 1.12366 4.36639 1.72741 3.29171 2.80209C2.21703 3.87677 1.61328 5.33435 1.61328 6.85418C1.61328 8.374 2.21703 9.83158 3.29171 10.9063L4.39588 12.0104L12.5 20.1146L20.6042 12.0104L21.7084 10.9063C22.2407 10.3742 22.6629 9.74252 22.951 9.04725C23.2391 8.35198 23.3874 7.60677 23.3874 6.85418C23.3874 6.10158 23.2391 5.35637 22.951 4.6611C22.6629 3.96583 22.2407 3.33413 21.7084 2.80209V2.80209Z" stroke="#CFCFCF" stroke-width="2" stroke-linecap="round" stroke-linejoin="round"/>
</svg>
