<svg width="33" height="25" viewBox="0 0 33 25" fill="none" xmlns="http://www.w3.org/2000/svg">
<path d="M32.0001 13.5V19.0001H30H29V20.0001C29 21.9303 27.4303 23.5001 25.5 23.5001C23.5698 23.5001 22 21.9303 22 20.0001V19.0001H21H12H11V20.0001C11 21.9303 9.43027 23.5001 7.50003 23.5001C5.56979 23.5001 4.00003 21.9303 4.00003 20.0001V19.0001H3.00003H1V3.50003C1 2.39476 1.89476 1.5 3.00003 1.5H23V6.49998V7.49998H24H28L28.1876 7.75005H27.75H24H23V8.75005V12.5V13.5H24H30.6975H32.0001ZM4.25003 20C4.25003 21.7973 5.70272 23.25 7.50003 23.25C9.29725 23.25 10.75 21.7973 10.75 20C10.75 18.2027 9.29734 16.75 7.50003 16.75C5.70272 16.75 4.25003 18.2027 4.25003 20ZM22.25 20C22.25 21.7973 23.7027 23.25 25.5 23.25C27.2973 23.25 28.75 21.7973 28.75 20C28.75 18.2027 27.2974 16.75 25.5 16.75C23.7027 16.75 22.25 18.2027 22.25 20Z" stroke="#D2D2D2" stroke-width="2"/>
</svg>
