<svg width="35" height="29" viewBox="0 0 35 29" fill="none" xmlns="http://www.w3.org/2000/svg">
<path d="M12.3047 5.5625V1.1875C12.3047 0.96994 12.3911 0.76129 12.545 0.607451C12.6988 0.453613 12.9074 0.367188 13.125 0.367188C13.3426 0.367188 13.5512 0.453613 13.7051 0.607451C13.8589 0.76129 13.9453 0.96994 13.9453 1.1875V5.5625C13.9453 5.78006 13.8589 5.98871 13.7051 6.14255C13.5512 6.29639 13.3426 6.38281 13.125 6.38281C12.9074 6.38281 12.6988 6.29639 12.545 6.14255C12.3911 5.98871 12.3047 5.78006 12.3047 5.5625ZM17.5 6.38281C17.7176 6.38281 17.9262 6.29639 18.0801 6.14255C18.2339 5.98871 18.3203 5.78006 18.3203 5.5625V1.1875C18.3203 0.96994 18.2339 0.76129 18.0801 0.607451C17.9262 0.453613 17.7176 0.367188 17.5 0.367188C17.2824 0.367188 17.0738 0.453613 16.92 0.607451C16.7661 0.76129 16.6797 0.96994 16.6797 1.1875V5.5625C16.6797 5.78006 16.7661 5.98871 16.92 6.14255C17.0738 6.29639 17.2824 6.38281 17.5 6.38281ZM21.875 6.38281C22.0926 6.38281 22.3012 6.29639 22.4551 6.14255C22.6089 5.98871 22.6953 5.78006 22.6953 5.5625V1.1875C22.6953 0.96994 22.6089 0.76129 22.4551 0.607451C22.3012 0.453613 22.0926 0.367188 21.875 0.367188C21.6574 0.367188 21.4488 0.453613 21.295 0.607451C21.1411 0.76129 21.0547 0.96994 21.0547 1.1875V5.5625C21.0547 5.78006 21.1411 5.98871 21.295 6.14255C21.4488 6.29639 21.6574 6.38281 21.875 6.38281ZM34.3984 12.7812L30.3516 15.8164V24.1562C30.3503 25.2437 29.9178 26.2862 29.1489 27.0551C28.38 27.8241 27.3374 28.2566 26.25 28.2578H8.75C7.66258 28.2566 6.62004 27.8241 5.85112 27.0551C5.08219 26.2862 4.64967 25.2437 4.64844 24.1562V15.8164L0.601566 12.7812C0.427518 12.6507 0.312453 12.4564 0.281685 12.241C0.250918 12.0256 0.306967 11.8069 0.437503 11.6328C0.56804 11.4588 0.76237 11.3437 0.977744 11.3129C1.19312 11.2822 1.41189 11.3382 1.58594 11.4688L4.64844 13.7656V11.0312C4.64902 10.5238 4.85087 10.0373 5.2097 9.67844C5.56853 9.31961 6.05504 9.11777 6.5625 9.11719H28.4375C28.945 9.11777 29.4315 9.31961 29.7903 9.67844C30.1491 10.0373 30.351 10.5238 30.3516 11.0312V13.7656L33.4141 11.4688C33.5002 11.4041 33.5983 11.3571 33.7027 11.3304C33.807 11.3036 33.9156 11.2977 34.0223 11.3129C34.1289 11.3282 34.2315 11.3643 34.3242 11.4191C34.4169 11.474 34.4979 11.5466 34.5625 11.6328C34.6271 11.719 34.6742 11.8171 34.7009 11.9214C34.7276 12.0258 34.7336 12.1344 34.7183 12.241C34.7031 12.3477 34.667 12.4502 34.6121 12.5429C34.5572 12.6356 34.4846 12.7166 34.3984 12.7812ZM28.7109 11.0312C28.7108 10.9588 28.682 10.8893 28.6307 10.838C28.5795 10.7868 28.51 10.7579 28.4375 10.7578H6.5625C6.49002 10.7579 6.42053 10.7868 6.36927 10.838C6.31802 10.8893 6.28917 10.9588 6.28907 11.0312V24.1562C6.28979 24.8087 6.5493 25.4342 7.01066 25.8956C7.47202 26.357 8.09754 26.6165 8.75 26.6172H26.25C26.9025 26.6165 27.528 26.357 27.9894 25.8956C28.4507 25.4342 28.7102 24.8087 28.7109 24.1562V11.0312Z" fill="#090909"/>
</svg>
