<svg width="26" height="26" viewBox="0 0 26 26" fill="none" xmlns="http://www.w3.org/2000/svg">
<path d="M12.9997 1.33337C6.55618 1.33337 1.33301 6.55654 1.33301 13C1.33301 19.4435 6.55618 24.6667 12.9997 24.6667C19.4432 24.6667 24.6663 19.4435 24.6663 13C24.6663 6.55654 19.4432 1.33337 12.9997 1.33337Z" stroke="#FF7A00" stroke-width="1.2" stroke-linecap="round" stroke-linejoin="round"/>
<path d="M3.98242 20.4037C3.98242 20.4037 6.58292 17.0834 12.9996 17.0834C19.4163 17.0834 22.0179 20.4037 22.0179 20.4037" stroke="#FF7A00" stroke-width="1.2" stroke-linecap="round" stroke-linejoin="round"/>
<path d="M13 13C13.9283 13 14.8185 12.6313 15.4749 11.9749C16.1313 11.3185 16.5 10.4283 16.5 9.5C16.5 8.57174 16.1313 7.6815 15.4749 7.02513C14.8185 6.36875 13.9283 6 13 6C12.0717 6 11.1815 6.36875 10.5251 7.02513C9.86875 7.6815 9.5 8.57174 9.5 9.5C9.5 10.4283 9.86875 11.3185 10.5251 11.9749C11.1815 12.6313 12.0717 13 13 13V13Z" stroke="#FF7A00" stroke-width="1.2" stroke-linecap="round" stroke-linejoin="round"/>
</svg>
